<svg xmlns="http://www.w3.org/2000/svg" width="1024" height="1024" viewBox="0 0 1024 1024" fill="none">
  <defs>
    <linearGradient id="bg" x1="112" y1="108" x2="900" y2="918" gradientUnits="userSpaceOnUse">
      <stop offset="0" stop-color="#0A2033"/>
      <stop offset="1" stop-color="#0D3148"/>
    </linearGradient>
    <linearGradient id="core" x1="245" y1="208" x2="766" y2="806" gradientUnits="userSpaceOnUse">
      <stop offset="0" stop-color="#F4FBFF"/>
      <stop offset="1" stop-color="#D8EBF7"/>
    </linearGradient>
    <linearGradient id="wave" x1="244" y1="635" x2="764" y2="733" gradientUnits="userSpaceOnUse">
      <stop offset="0" stop-color="#7ED9FF"/>
      <stop offset="1" stop-color="#44B6E8"/>
    </linearGradient>
    <filter id="shadow" x="142" y="136" width="740" height="768" filterUnits="userSpaceOnUse" color-interpolation-filters="sRGB">
      <feDropShadow dx="0" dy="18" stdDeviation="14" flood-opacity="0.25"/>
    </filter>
  </defs>

  <rect x="56" y="56" width="912" height="912" rx="222" fill="url(#bg)"/>
  <rect x="56" y="56" width="912" height="912" rx="222" stroke="#9FD9F5" stroke-opacity="0.22" stroke-width="10"/>

  <g opacity="0.24" stroke="#A9D7ED" stroke-width="5">
    <path d="M198 322H826"/>
    <path d="M198 392H826"/>
    <path d="M198 462H826"/>
    <path d="M198 532H826"/>
    <path d="M198 602H826"/>
    <path d="M198 672H826"/>
    <path d="M198 742H826"/>
  </g>

  <g filter="url(#shadow)">
    <rect x="246" y="214" width="112" height="596" rx="44" fill="url(#core)"/>
    <rect x="666" y="214" width="112" height="596" rx="44" fill="url(#core)"/>
    <rect x="246" y="454" width="532" height="116" rx="48" fill="url(#core)"/>
  </g>

  <path d="M244 686C302 649 356 649 414 686C472 723 526 723 584 686C642 649 696 649 764 686" stroke="url(#wave)" stroke-width="46" stroke-linecap="round"/>
  <circle cx="780" cy="252" r="22" fill="#7ED9FF" opacity="0.9"/>
</svg>
